<svg id="Layer_1" data-name="Layer 1" xmlns="http://www.w3.org/2000/svg" viewBox="0 0 24 24"><defs><style>.cls-1{fill:#297c3b;}</style></defs><path class="cls-1" d="M12.12,6.1c1.41,0,3.13.54,3.73,1.67a1.16,1.16,0,0,0,1.59.46l1.38-.73a1.16,1.16,0,0,0,.47-1.58,7,7,0,0,0-5.16-3.47V1.17A1.17,1.17,0,0,0,13,0H11.42a1.17,1.17,0,0,0-1.18,1.17V2.45c-2.91.49-5.83,2.16-5.75,5.63.1,4.38,4.43,5.11,7.29,5.57s4.28,1,4.25,2.14c0,1.83-3,2-3.91,2-1.64,0-3.8-.52-4.51-1.95a1.16,1.16,0,0,0-.67-.6A1.11,1.11,0,0,0,6,15.3L4.59,16a1.19,1.19,0,0,0-.52,1.56,7.76,7.76,0,0,0,6.15,4v1.25A1.17,1.17,0,0,0,11.39,24H12.9a1.17,1.17,0,0,0,1.17-1.17V21.55c3.11-.49,5.95-2.34,6-5.71,0-4.69-4.61-5.49-7.68-6C9.07,9.25,8.42,8.76,8.42,8a1.27,1.27,0,0,1,.34-.92,5,5,0,0,1,3.36-1Z"/></svg>