<svg id="Layer_6" data-name="Layer 6" xmlns="http://www.w3.org/2000/svg" viewBox="0 0 1113.98 1280"><defs><style>.cls-1{fill:#bababa;fill-rule:evenodd;}</style></defs><path class="cls-1" d="M390.24,145a32.14,32.14,0,0,0-41-29.69C330.48,87.17,286.51,98.82,285,133c-35.33,9.77-28.56,63.13,8.64,63.13h87.94c29.69,0,36.08-42.09,8.65-51.11Z"/><path class="cls-1" d="M722.66,93.32a32.13,32.13,0,0,0-34.41-37.08c-13-31.31-58.35-28.42-66.47,4.83-36.56,2.72-40.29,56.39-3.79,63.62l86.26,17.09c29.13,5.77,43.57-34.28,18.41-48.46Z"/><path class="cls-1" d="M166.37,716.76a32.13,32.13,0,0,0-46.94-18.87c-25.06-22.79-64.9-.83-58.07,32.71-31.9,18-12.4,68.18,23.7,59.16l85.31-21.32c28.81-7.19,24.8-49.58-4-51.68Z"/><path class="cls-1" d="M1017,1067.23A32.14,32.14,0,0,0,970,1048.35c-25.07-22.79-64.9-.83-58.07,32.72-31.9,18-12.4,68.18,23.69,59.16l85.32-21.32c28.8-7.2,24.8-49.58-4-51.68Z"/><path class="cls-1" d="M304.51,1174.69a32.12,32.12,0,0,0-31.21-39.81c-10.31-32.27-55.79-33.17-66.64-.7-36.66-.33-44.83,52.84-9.06,63.08l84.54,24.19c28.55,8.17,46.27-30.54,22.37-46.76Z"/><path class="cls-1" d="M1054,748a32.12,32.12,0,0,0-31.21-39.81c-10.31-32.27-55.79-33.17-66.64-.7-36.66-.33-44.83,52.84-9.06,63.08l84.54,24.19c28.55,8.17,46.27-30.54,22.38-46.76Z"/><path class="cls-1" d="M565.47,209.64A18.58,18.58,0,0,0,540.74,194c-11.87-15.57-36.81-7.23-36.42,12.55-20,6.94-14.16,37.48,7.31,36.11l50.73-3.23c17.13-1.09,19.26-25.61,3.11-29.81Z"/><path class="cls-1" d="M111.36,310.7a18.57,18.57,0,0,0-27.94-8.62C67.89,290.15,46,304.72,51.54,323.71,34,335.64,47.67,363.58,68,356.66l48.12-16.38c16.25-5.53,11.91-29.76-4.79-29.58Z"/><path class="cls-1" d="M1081.57,258.29a18.58,18.58,0,0,0-23.68-17.17c-10.86-16.29-36.28-9.55-37.14,10.21-20.43,5.65-16.51,36.5,5,36.5h50.84c17.16,0,20.85-24.33,5-29.54Z"/><path class="cls-1" d="M148.79,1057.66a18.57,18.57,0,0,0-23.68-17.16c-10.86-16.3-36.28-9.56-37.15,10.21-20.42,5.65-16.51,36.5,5,36.5h50.83c17.17,0,20.86-24.34,5-29.55Z"/><path class="cls-1" d="M151.91,558.22a10,10,0,0,0-12.7-9.21c-5.82-8.74-19.46-5.12-19.92,5.48-11,3-8.86,19.58,2.68,19.58h27.26c9.21,0,11.19-13.05,2.68-15.85Z"/><path class="cls-1" d="M700.32,1228.94a10,10,0,0,0-12.7-9.2c-5.82-8.74-19.46-5.13-19.92,5.47-11,3-8.86,19.58,2.68,19.58h27.26c9.21,0,11.19-13,2.68-15.85Z"/><path class="cls-1" d="M1048.72,499.7a10,10,0,0,0-12.7-9.21c-5.83-8.74-19.46-5.13-19.93,5.48-11,3-8.85,19.57,2.68,19.57H1046c9.2,0,11.18-13,2.68-15.84Z"/></svg>