<svg id="Layer_3" data-name="Layer 3" xmlns="http://www.w3.org/2000/svg" viewBox="0 0 1113.98 1280"><defs><style>.cls-1,.cls-2,.cls-3{fill:#9e1b1b;}.cls-1,.cls-2{stroke:#721e1e;}.cls-1{stroke-linecap:round;stroke-linejoin:round;stroke-width:11.34px;}.cls-2{stroke-miterlimit:10;stroke-width:9.51px;}</style></defs><ellipse class="cls-1" cx="655.41" cy="689.85" rx="18.77" ry="12.82" transform="translate(-51.46 52.83) rotate(-4.44)"/><ellipse class="cls-2" cx="320.46" cy="861.88" rx="27.82" ry="25.8"/><ellipse class="cls-2" cx="496.72" cy="958.49" rx="27.82" ry="25.8"/><ellipse class="cls-2" cx="726.47" cy="936.1" rx="27.82" ry="25.8"/><ellipse class="cls-2" cx="872.09" cy="847.11" rx="27.82" ry="25.8"/><path class="cls-3" d="M716,426c-1.2-28.82-25.56-46-33.17-51.37C659.72,358.4,635.4,359,624.13,359.29c-10.4.26-47,1.17-72.8,29.53-5.27,5.79-21.46,23.57-21.44,50.16,0,5.23,0,25.25,13.75,40.45,11.88,13.14,28.38,16.41,48.82,17q.62,9.15,1.24,18.29a1.5,1.5,0,0,0,1.59,1.4l21.16-1.41v-22h4.45v21.66l15.67-1V491H641v22.09l21-1.88a2.46,2.46,0,0,0,2.23-2.26q.69-8.84,1.39-17.69A67.17,67.17,0,0,0,686,480.64C690.81,477,717.24,457,716,426ZM589.57,454.21c-2.15,12.87-16.51,23.61-26.11,20-8.69-3.31-12-17.88-8.05-28.4,3.15-8.34,12.36-18,22-15.61S591.1,445.07,589.57,454.21Zm94,14c-9.6,3.65-24-7.09-26.11-20-1.53-9.14,2.71-21.73,12.18-24.05,9.62-2.35,18.83,7.27,22,15.61C695.63,450.34,692.28,464.91,683.59,468.22Z"/></svg>