<?xml version="1.0" encoding="utf-8"?>
<!-- Generator: Adobe Illustrator 26.0.1, SVG Export Plug-In . SVG Version: 6.00 Build 0)  -->
<svg version="1.1" id="Layer_3" xmlns="http://www.w3.org/2000/svg" xmlns:xlink="http://www.w3.org/1999/xlink" x="0px" y="0px"
	 viewBox="0 0 1114 1280" style="enable-background:new 0 0 1114 1280;" xml:space="preserve">
<style type="text/css">
	.st0{fill:#41AA5C;stroke:#297C3B;stroke-width:11.34;stroke-linecap:round;stroke-linejoin:round;}
	.st1{fill:#41AA5C;stroke:#297C3B;stroke-width:9.51;stroke-miterlimit:10;}
	.st2{fill:#41AA5C;}
</style>
<ellipse transform="matrix(0.997 -7.741509e-02 7.741509e-02 0.997 -51.4396 52.8072)" class="st0" cx="655.4" cy="689.9" rx="18.8" ry="12.8"/>
<ellipse class="st1" cx="320.5" cy="861.9" rx="27.8" ry="25.8"/>
<ellipse class="st1" cx="496.7" cy="958.5" rx="27.8" ry="25.8"/>
<ellipse class="st1" cx="726.5" cy="936.1" rx="27.8" ry="25.8"/>
<ellipse class="st1" cx="872.1" cy="847.1" rx="27.8" ry="25.8"/>
<path class="st2" d="M716,426c-1.2-28.8-25.6-46-33.2-51.4c-23.1-16.2-47.4-15.6-58.7-15.3c-10.4,0.3-47,1.2-72.8,29.5
	c-5.3,5.8-21.5,23.6-21.4,50.2c0,5.2,0,25.2,13.8,40.5c11.9,13.1,28.4,16.4,48.8,17c0.4,6.1,0.8,12.2,1.2,18.3
	c0.1,0.8,0.8,1.5,1.6,1.4l21.2-1.4v-22h4.5v21.7l15.7-1V491h4.4v22.1l21-1.9c1.2-0.1,2.1-1.1,2.2-2.3c0.5-5.9,0.9-11.8,1.4-17.7
	c7.4-2.3,14.2-5.9,20.4-10.6C690.8,477,717.2,457,716,426z M589.6,454.2c-2.2,12.9-16.5,23.6-26.1,20c-8.7-3.3-12-17.9-8-28.4
	c3.2-8.3,12.4-18,22-15.6S591.1,445.1,589.6,454.2z M683.6,468.2c-9.6,3.6-24-7.1-26.1-20c-1.5-9.1,2.7-21.7,12.2-24
	c9.6-2.4,18.8,7.3,22,15.6C695.6,450.3,692.3,464.9,683.6,468.2L683.6,468.2z"/>
</svg>
