<svg id="Layer_5" data-name="Layer 5" xmlns="http://www.w3.org/2000/svg" viewBox="0 0 1113.98 1280"><defs><style>.cls-1{fill:none;}.cls-1,.cls-2{stroke:#ccba6e;stroke-linecap:round;stroke-miterlimit:10;stroke-width:7px;}.cls-2,.cls-3{fill:#ccba6e;}</style></defs><path class="cls-1" d="M620.9,731.43c1.28,1.48,15.72,17.68,38.43,15.37,22-2.25,32.87-20,34-21.84"/><path class="cls-2" d="M761.89,588.59,802,566.86a56.83,56.83,0,0,1,8.74,7.16c12.42,12.46,15.55,27.4,16.86,34,1.8,9.2,4.1,20.94-1.34,33.88-2,4.76-8.32,19.77-22,22.3-13.44,2.5-24.62-8.79-28.48-12.69-7.57-7.64-10.38-15.94-12.31-21.85C758.06,613.09,759.82,598,761.89,588.59Z"/><path class="cls-3" d="M796.19,571.19c10.1-4.92,20.9-12.05,23.09-24a2.31,2.31,0,0,0-1.57-2.77,2.27,2.27,0,0,0-2.77,1.57c-2,10.77-11.93,16.84-21,21.27a2.25,2.25,0,1,0,2.27,3.88Z"/><path class="cls-3" d="M809.75,587c11.12-3.21,22.86-8.42,27.18-20.06a2.27,2.27,0,0,0-1.57-2.77,2.3,2.3,0,0,0-2.77,1.57c-3.7,10-14.65,14.21-24,16.93-2.77.8-1.59,5.14,1.2,4.33Z"/><path class="cls-2" d="M523.71,612.05l-44.59-9.65a57,57,0,0,0-6.39,9.32c-8.44,15.43-7.27,30.66-6.66,37.39.84,9.34,1.91,21.26,10.75,32.16,3.26,4,13.51,16.65,27.35,15.27,13.6-1.36,21.18-15.33,23.8-20.16,5.13-9.45,5.5-18.2,5.7-24.42C534.23,634.5,528.32,620.45,523.71,612.05Z"/><path class="cls-3" d="M482.92,599.18c-9.94-1.71-21.23-4.74-26.15-14.51-1.3-2.59-5.19-.31-3.89,2.27,5.45,10.82,17.75,14.67,28.85,16.58A2.32,2.32,0,0,0,484.5,602a2.28,2.28,0,0,0-1.58-2.77Z"/><path class="cls-3" d="M477.27,619.38c-9.73,0-21.49-1-27.81-9.48a2.32,2.32,0,0,0-3.08-.81,2.27,2.27,0,0,0-.81,3.08c7.41,10,20.09,11.73,31.7,11.71,2.9,0,2.9-4.51,0-4.5Z"/></svg>