<svg id="Layer_5" data-name="Layer 5" xmlns="http://www.w3.org/2000/svg" viewBox="0 0 1113.98 1280"><defs><style>.cls-1{fill:#9e1b1b;stroke:#721e1e;stroke-width:15.51px;}.cls-1,.cls-4{stroke-miterlimit:10;}.cls-2{fill:#9b6631;}.cls-3{fill:#c6873d;}.cls-4{fill:#1a1a1a;stroke:#1a1a1a;stroke-width:2px;fill-rule:evenodd;}</style></defs><path class="cls-1" d="M489.63,202.41c-3-15.67-5.82-29.94-8.51-44.21-.45-2.47-.45-5-.67-7.5-.39-4.57,2-7.84,6-10.87,8.4-6.34,16.24-13.19,24.58-19.58,2-1.5,5.38-3.22,7.4-2.75,4,1,3.07,4.38,2.35,7.13-2.47,9.23-5,18.46-7.34,27.74A139.72,139.72,0,0,0,509.68,188c2.52-1,4.36-1.54,5.88-2.38,35.78-19.58,75.82-27.23,117.94-28.49A347.57,347.57,0,0,1,734.36,169a178.75,178.75,0,0,1,54,25,86.57,86.57,0,0,1,28.44,31.9c9,17.11,7.29,33.67-4.14,49.57-8.4,11.75-20.05,20.84-34.05,27.79-28.72,14.31-59.92,21.91-93.29,22.8-13.33.37-26.77-1-40.1-.89-16,.1-32.15.1-48,1.5A78.6,78.6,0,0,0,553.14,345c-4.48,3.73-8.73,7.69-12.88,11.7-38.58,37.45-87,60.39-145.77,67.47-14.62,1.78-29.46,1.92-43.9-1.25-20-4.34-32.48-14.6-35.79-32.13-2.46-13-.67-25.6,3.59-38a133.53,133.53,0,0,1,11-24.15c20-34,47.1-63.52,83.66-86.36,10.36-6.48,22.18-11.24,33.44-16.69,8.62-4.2,17.52-8.12,26-12.55,6.15-3.26,11.75-7.17,17.19-10.58Z"/><path class="cls-2" d="M1040,881.71c-12.41-40.19-64.78-60.1-120.1-43L757,888.12a2.65,2.65,0,0,0-2.06.61c-1.16,1.15-.61,3.78,3.93,14.4,2.8,6.55,2.81,6.07,3.36,7.91,1.31,4.43,1,6.56,2.62,11.87a56.06,56.06,0,0,0,2.07,5.75c3,7.67,2.58,19.42,2.26,24.2-.07,1.06-.1,1.1-.15,2.11a61.5,61.5,0,0,0,.59,13.2c.53,3.79-.05,16-5.36,54.49l228.33-64C1029.68,947.2,1050.93,917.13,1040,881.71Z"/><path class="cls-3" d="M768.85,951.64a136.7,136.7,0,0,1-.86,41.57c116-31,201.8-55.93,228.94-65.41,9.57-3.34,26.18-9.65,30.48-23.76a28,28,0,0,0-.16-16c-6.77-24-44.54-39.37-90.58-26.35l-33.37,9.44L920,886.89A20,20,0,1,1,892.64,916l-34.22-32.19-51.34,14.51,16.74,15.75a20,20,0,0,1-27.41,29.14L762.19,911l.94,4.06"/><path class="cls-4" d="M678.09,733.19c33,18.24,99.19,4.53,97.5-43.34-.4,17.38-27.27,64.5-82.81,22.9a12.59,12.59,0,1,0-14.69,20.44Z"/><path class="cls-4" d="M643.83,737.54c-33.84,20.81-104.42,9.59-104.78-40.9,1.27,18.28,31.85,66.6,88.32,20.09A13.25,13.25,0,0,1,646,718.9a13.41,13.41,0,0,1-2.18,18.64Z"/></svg>