<svg id="Layer_7" data-name="Layer 7" xmlns="http://www.w3.org/2000/svg" viewBox="0 0 1113.98 1280"><defs><style>.cls-1{fill:#fb8fb9;}</style></defs><path class="cls-1" d="M335.37,210.52c10.66-9,32.78-27.93,54.83-48C415,139.93,404.3,95.4,373.68,92.13c-11.37-1.22-24.32,5-35.73,23l-2.6,4.11-2.58-4.11C321.5,97.28,307.91,91.29,295.9,92.76c-32.14,3.9-41,46.34-15.39,69.72,17.95,16.36,36.35,32.31,54.86,48Z"/><path class="cls-1" d="M643.33,147.84c13.1-4.79,40.38-15,68-26.22,31-12.7,36.32-58.18,8.69-71.78-10.25-5.05-24.53-3.71-41.46,9.31l-3.85,3-1-4.75c-4.44-20.63-15.15-30.93-26.93-33.68-31.52-7.39-54.43,29.41-38.43,60.17,11.23,21.54,23,42.84,35,63.94Z"/><path class="cls-1" d="M132,795.5c7.33-11.87,22.48-36.73,37.2-62.66,16.51-29.17-7.46-68.18-37.58-61.77-11.19,2.37-21.58,12.26-26.81,33l-1.2,4.72-3.73-3.11c-16.26-13.46-31-14.93-42-9.8-29.34,13.69-24.57,56.78,7,71,22.14,10,44.59,19.41,67.06,28.57Z"/><path class="cls-1" d="M982.41,798.54c13.11-4.78,40.39-14.95,68-26.21,31-12.7,36.32-58.18,8.69-71.78-10.26-5.06-24.54-3.72-41.46,9.31l-3.86,3-1-4.74c-4.44-20.64-15.14-30.94-26.92-33.69-31.52-7.39-54.44,29.42-38.43,60.18,11.23,21.53,23,42.84,35,63.94Z"/><path class="cls-1" d="M228.3,1229c13.11-4.79,40.39-15,68-26.22,31-12.7,36.33-58.18,8.7-71.78-10.26-5-24.54-3.71-41.46,9.31l-3.86,3-1-4.75c-4.44-20.64-15.14-30.94-26.92-33.69-31.53-7.39-54.44,29.42-38.43,60.18,11.23,21.53,23,42.84,35,63.94Z"/><path class="cls-1" d="M992.08,1141.43c6.88-12.14,21.07-37.56,34.8-64,15.4-29.77-10-67.85-39.89-60.3-11.09,2.79-21.09,13.07-25.54,33.95l-1,4.76-3.84-3c-16.76-12.84-31.58-13.75-42.34-8.21-28.8,14.8-22.4,57.68,9.72,70.73,22.51,9.13,45.3,17.72,68.1,26Z"/><path class="cls-1" d="M535.86,245.65c5.36-4.81,16.47-14.94,27.52-25.65,12.41-12.06,6.2-34.87-9.66-36.06-5.89-.45-12.47,2.95-18.07,12.45l-1.27,2.16-1.4-2.08c-6.1-9-13.21-11.9-19.39-10.95-16.52,2.53-20.41,24.58-6.82,36.23,9.53,8.15,19.28,16.09,29.09,23.88Z"/><path class="cls-1" d="M1048.94,296c5.35-4.81,16.46-14.94,27.52-25.65,12.41-12.06,6.19-34.87-9.66-36.06-5.89-.45-12.48,2.94-18.07,12.44l-1.28,2.17-1.4-2.08c-6.1-9-13.21-11.91-19.38-10.95-16.53,2.53-20.41,24.57-6.82,36.22,9.53,8.16,19.28,16.09,29.08,23.89Z"/><path class="cls-1" d="M91.42,359.88c3.22-6.44,9.85-19.94,16.21-33.95,7.13-15.77-7-34.72-22.2-30-5.64,1.74-10.52,7.31-12.25,18.2l-.4,2.48-2.06-1.42c-9-6.17-16.65-6.23-22-3.09-14.45,8.41-10,30.35,6.93,36.21,11.85,4.1,23.83,7.91,35.81,11.57Z"/><path class="cls-1" d="M110.86,1090.15c5.35-4.81,16.46-14.94,27.52-25.65,12.41-12.06,6.19-34.87-9.66-36.06-5.89-.45-12.47,3-18.07,12.44l-1.27,2.17L108,1041c-6.11-9-13.22-11.9-19.39-11-16.52,2.53-20.41,24.57-6.82,36.23,9.53,8.15,19.28,16.08,29.09,23.88Z"/><path class="cls-1" d="M135.53,574.64c2.69-2.43,8.29-7.53,13.86-12.92,6.25-6.08,3.12-17.57-4.87-18.17-3-.22-6.28,1.49-9.1,6.27l-.64,1.09-.7-1c-3.08-4.55-6.66-6-9.77-5.51-8.32,1.27-10.28,12.38-3.43,18.25,4.79,4.1,9.71,8.1,14.65,12Z"/><path class="cls-1" d="M1032.33,516.12c2.7-2.43,8.29-7.53,13.86-12.93,6.25-6.07,3.12-17.56-4.86-18.16-3-.23-6.29,1.48-9.11,6.27l-.64,1.09-.7-1.05c-3.08-4.55-6.66-6-9.77-5.51-8.32,1.27-10.28,12.37-3.43,18.24,4.8,4.11,9.71,8.11,14.65,12Z"/><path class="cls-1" d="M682.81,1245.36c2.7-2.42,8.29-7.52,13.86-12.92,6.26-6.07,3.12-17.56-4.86-18.17-3-.22-6.29,1.49-9.1,6.27l-.65,1.09-.7-1c-3.08-4.55-6.66-6-9.77-5.52-8.32,1.28-10.28,12.38-3.43,18.25,4.8,4.11,9.71,8.1,14.65,12Z"/></svg>