<svg id="Layer_4" data-name="Layer 4" xmlns="http://www.w3.org/2000/svg" viewBox="0 0 1113.98 1280"><defs><style>.cls-1,.cls-3{fill:#fff;}.cls-2{fill:#bababa;}.cls-3{stroke:#bababa;stroke-miterlimit:10;}</style></defs><path class="cls-1" d="M382.69,868.8c-1.52,4.65-2.63,10-3.72,13.08a140.78,140.78,0,0,0-6.35,23c-2.52,15.22-.36,32.23,10.2,43.47-13.16-14-24.23,10.25-21.69,21.5,2.07,9.15,8.44,16.76,15.57,22.86,7.37,6.31,15.9,11.49,25.3,13.94,5.44,1.42,11.79,2.65,18.77.43,10.38-3.29,15.6-12.49,23-25.91,10.11-18.43,13.4-34.21,13.2-34.28a133.07,133.07,0,0,1-18.8,44c-11.42,17.21-14.64,13-18.53,23.07-8.34,21.51,1.53,53.25.68,68a42.7,42.7,0,0,1-2.24,11.15c-1.87,5.24-5.19,9.82-7.94,14.66a74.21,74.21,0,0,0-9.65,36c-.11,16.69,6.59,34.53,21,42.93,12,7,26.82,6.31,40.69,5.41,19.49-1.25,39.14-2.54,57.93-7.81,15.13-4.25,31-10.91,41.62-22.89,11.07-12.44,12.84-28.53,14.61-44.43.74-6.61,7.53-47.38,19.2-39.95,2.47,1.57,3.59,4.58,4.31,7.43,2.89,11.47,2,23.49,2.42,35.31s2.47,24.28,10.09,33.33c7,8.29,17.6,12.51,28,15.54,37.48,10.9,84,12,120.31-4.24,19.59-8.78,30-28.5,21.92-49.19-6.08-15.54-20.63-24.47-25.77-41-8.1-26.07,2.3-51.64,5.52-77.47a198,198,0,0,0-14-100.73c12.56,27,13.91,57.68,21.41,86.49.56,2.14,1.3,4.48,3.19,5.64s4.65.67,6.91-.06c13.65-4.45,29.06-14.12,33.16-28.75,2.93-10.45-.66-21.49-4.22-31.74-2.62-7.55-11.25-6.26-17.21-4.66,2.61-12.23,9.72-22.58,10.16-35.71.86-25.31-24.17-41.4-46.47-45.64-9-1.7-16.28.9-20.31,9.32-10.39,21.71-2,52.28-26.2,66.77C599.21,863.25,617.4,848.44,517.36,936c-10.21,11.23-16.06,20.86-23.41,1.42-17.47-31.56-30.89-83.31-76-79.22-8.91.8-24.08-4.43-31.23,2.74C385.07,862.54,383.78,865.51,382.69,868.8Z"/><path class="cls-2" d="M375.46,866.81c-1.15,3.58-2,7.23-3,10.84s-2.5,7.43-3.63,11.17a101.39,101.39,0,0,0-4.53,23.72c-.83,14.82,3,30.07,13.25,41.17l10.61-10.61c-5.52-5.72-13.15-8.24-20.55-4.63-5.82,2.84-9.37,8.91-11.69,14.67a32.81,32.81,0,0,0-2.07,18.38c1.69,8.41,6.93,16,12.81,22.08a78.49,78.49,0,0,0,21.56,15.84c8,3.89,17.48,6.95,26.48,6.34a32.82,32.82,0,0,0,21.93-10.11c5.43-5.7,9.27-12.76,13-19.61a160.62,160.62,0,0,0,11.8-26.87c1.52-4.62,4.4-11.34,2-16-1.85-3.58-6.92-4.68-10.26-2.69-4,2.4-4.35,8.45-5.55,12.54-1,3.31-2.07,6.59-3.3,9.81-.34.92-.7,1.83-1.07,2.73-.13.32-.71,1.69-.17.42-.18.44-.37.87-.56,1.3-1,2.29-2.07,4.56-3.21,6.79a129,129,0,0,1-8.13,13.85c-.68,1-1.37,2-2.09,3-.35.49-.71,1-1.07,1.45.17-.22.83-1-.05,0-1.12,1.39-2.28,2.75-3.52,4-3.24,3.34-7,5.91-9.46,10-4.14,6.78-5.5,15.32-6,23.1-.6,8.59.19,17.23,1.24,25.76.89,7.3,2.17,14.6,2.57,22,.08,1.42.12,2.84.06,4.26,0,1-.11,2-.24,3,.16-1.17,0,.07-.08.25-.14.67-.25,1.34-.4,2a38.92,38.92,0,0,1-1.14,4.1c-.13.37-.27.75-.41,1.12.35-.92-.13.29-.18.39-.34.72-.69,1.43-1.06,2.13-2.37,4.47-5.29,8.61-7.55,13.14a84.59,84.59,0,0,0-5.89,15.26,76.39,76.39,0,0,0-2.37,29.51c2.4,19,12.3,36.63,30.71,44,9.17,3.67,19.41,4.17,29.18,3.84,10.53-.36,21.1-1.17,31.59-2.18,20.85-2,41.88-5.82,60.75-15.33,8.53-4.3,16.75-10.12,22.78-17.6A63.41,63.41,0,0,0,580.84,1138c1-5,1.71-10,2.31-15,.24-2,.48-4,.69-6,0-.39.2-1.53,0,.12-.25,1.8,0,0,0-.36.7-4.65,1.61-9.28,2.7-13.86.67-2.81,1.41-5.6,2.28-8.35.4-1.27.82-2.54,1.29-3.79.19-.54.4-1.08.61-1.61.08-.21.61-1.54.1-.26s.08-.15.2-.41a33,33,0,0,1,1.66-3.18c.24-.4.5-.77.75-1.16.93-1.48-1.29,1.29.08-.1a11.29,11.29,0,0,0,.92-.91c.53-.69-.76.67-.9.68.14,0,.4-.28.53-.35,1.2-.62-2,.57-.58.24s-2.28.07-.52.11c-.46,0-2-.47-.69,0-2.34-.83-1.55-.72-1.06-.44.11.07.84.59.26.12-.78-.63.78,1.32-.15-.16.24.39.44.79.66,1.18-.6-1.07-.08-.2,0,.12.23.8.48,1.58.67,2.39a63.44,63.44,0,0,1,1.74,14.28c.4,10.56,0,21.06,1.54,31.55,1.49,9.83,5.22,19.4,12,26.79s16.16,11.76,25.5,14.88c18.16,6.07,37.67,9.07,56.77,9.76,19.32.69,39.09-1.29,57.62-7,8.65-2.65,17.74-5.85,25.11-11.21a48.77,48.77,0,0,0,16.85-21,43,43,0,0,0,1.78-25.83c-2.1-9.18-7.2-16.91-12.91-24.21-1.21-1.54-2.44-3-3.66-4.57l-1.84-2.28c-.33-.43-.67-.85-1-1.28.81,1-.13-.19-.41-.55a69.61,69.61,0,0,1-6.54-10.65c-.12-.24-.55-1.32,0-.08-.17-.42-.34-.85-.5-1.27-.44-1.2-.82-2.42-1.16-3.65a62.05,62.05,0,0,1-1.76-8.29c.05.35.12,1.08,0-.5-.06-.55-.11-1.1-.16-1.65-.12-1.37-.2-2.75-.25-4.13-.09-2.75,0-5.51.13-8.25.57-9.83,2.65-19.32,4.74-29.66a243.94,243.94,0,0,0,4.68-32.39,205.28,205.28,0,0,0-5.73-62.8,200.64,200.64,0,0,0-9.6-28.87l-13.71,5.78a101.67,101.67,0,0,1,3.9,9.72c1.27,3.65,2.4,7.35,3.42,11.08,2,7.5,3.62,15.11,5.06,22.75s2.76,15.38,4.26,23.05c.74,3.83,1.53,7.65,2.4,11.45s1.6,8.09,3.47,11.64a12.79,12.79,0,0,0,12.3,6.83,35.07,35.07,0,0,0,10.42-2.94,74.29,74.29,0,0,0,18.48-10.75,43.56,43.56,0,0,0,12.39-15.32c3.68-8.06,4.19-16.41,2.74-25.08a86.89,86.89,0,0,0-3.59-13.45c-1.56-4.63-3.16-8.61-7.2-11.58-5.79-4.25-13.84-3.2-20.33-1.49l9.23,9.22c1.82-8.22,5.64-15.76,8.06-23.8a48.71,48.71,0,0,0,1.12-25.6c-3.55-14.47-14.9-25.85-27.67-32.81A80.24,80.24,0,0,0,760.06,835c-7.75-1.8-16.4-2.27-23.26,2.49-12.15,8.43-13.76,25.58-15.69,39-1,7.2-2.17,14.39-4.74,21.22-.09.25-.56,1.35-.14.38s-.19.4-.29.61c-.39.82-.8,1.64-1.25,2.43s-.92,1.59-1.42,2.35c-.21.31-.43.6-.63.91-.76,1.17.6-.64,0,0a46.59,46.59,0,0,1-3.75,4l-.89.77c-1.49,1.29,1.24-.82-.41.32-.87.6-1.74,1.19-2.65,1.74h7.57c-16-8-31.75-16.44-47.52-24.87-10.81-5.77-21.67-11.64-33.16-15.95-8.11-3-17-5.07-25.68-4.15-9.91,1-19,4.92-27.42,10.1-12,7.36-22.9,16.54-33.62,25.6-7.39,6.24-14.69,12.6-22,19-3.95,3.44-8.41,6.71-11.91,10.6-2.53,2.82-4.93,5.79-7.71,8.36-.21.2-.44.39-.65.6-1.27,1.2.16-.27.23-.14a12.77,12.77,0,0,1-1.55,1c-.7.47-.26-.62.89-.37a4.69,4.69,0,0,0-.89.24s2.16-.28,1.11-.21c-1.22.09,2,.43.83.08,2.31.72,1.17.63.64.21-.87-.7.62.56.66.52a8.88,8.88,0,0,1-.86-.87c-.85-.77.55.41.31.41s-1.26-2-1.45-2.4c-.31-.58-.59-1.18-.88-1.78-.66-1.35.23.65-.43-1-1.45-3.67-3.5-7.09-5.25-10.62-1.57-3.16-3.08-6.35-4.59-9.54-6.22-13.15-12.29-26.59-20.95-38.36-8.93-12.14-20.63-22.61-35.75-25.9a56.5,56.5,0,0,0-12.36-1.32c-3.94,0-7.74.4-11.68,0-8.66-.78-18.55-2.46-26.33,2.6-5,3.22-7.28,8.3-9.11,13.74-1.25,3.72,1.44,8.36,5.24,9.23a7.69,7.69,0,0,0,9.23-5.24c.29-.87.58-1.73.92-2.57s0,0,0,.1c.2-.41.4-.82.62-1.22s.37-.55.49-.83c.41-.9-.83.62-.1.12a4.39,4.39,0,0,0,.57-.57c.67-.69.18,0-.25.19.22-.1,1.9-1.2,1-.63s.77-.24,1.15-.34c.63-.17,1.29-.23,1.91-.41.81-.23-.48.08-.56.08.48,0,1-.09,1.47-.11,5.78-.3,11.49.88,17.24,1.1,2.57.1,5.11-.23,7.68-.27,1.3,0,2.6,0,3.89.08.63,0,1.26.09,1.89.15,1.79.15-.91-.19.37,0a46.73,46.73,0,0,1,7.17,1.71c.55.18,1.09.37,1.63.57l.69.27c.64.24.62.65.24.09-.24-.35-.6-.28,0,0l.66.31q.88.42,1.74.87a49.52,49.52,0,0,1,5.95,3.74l.58.44c.81.58-1.11-.93-.36-.27.36.32.76.61,1.13.93.94.79,1.85,1.61,2.74,2.47a68.81,68.81,0,0,1,4.95,5.29c.71.84,1.4,1.7,2.08,2.56-.91-1.16-.22-.28.23.32l1.21,1.68c5.87,8.29,10.54,17.38,14.95,26.51,4.24,8.77,8.19,17.7,12.8,26.29.15.27.91,1.61.58,1s.15.37.18.46c.35.83.7,1.67,1.06,2.51a34.86,34.86,0,0,0,2.2,4.41,18.51,18.51,0,0,0,6.13,6.52c5.62,3.27,11.51,1.15,16.13-2.67,4-3.34,6.88-7.84,10.8-11.26q8.46-7.41,17-14.8c8.94-7.77,17.9-15.52,27.15-22.92l2.86-2.26c.46-.37.92-.76,1.4-1.09-1.36.94-.16.12.44-.33,1.73-1.32,3.47-2.62,5.24-3.88,3.17-2.28,6.42-4.47,9.77-6.47a98.42,98.42,0,0,1,8.82-4.6c1.09-.51-1.71.68-.6.25l1-.41c.72-.28,1.44-.54,2.17-.79,1.31-.44,2.64-.83,4-1.16.65-.16,1.3-.3,2-.42.32-.07.65-.12,1-.18s1.85-.27.25-.05.47,0,1-.08c.69-.06,1.39-.1,2.08-.12,1.36,0,2.71,0,4.06.08l1.84.17.42,0c1.08.1-1.23-.18-1.13-.15.37.08.77.11,1.15.17a60.74,60.74,0,0,1,8.48,2.11c1.49.48,3,1,4.43,1.57.77.29,1.54.59,2.3.9.39.16.78.34,1.17.49.14,0-1.68-.73-.94-.4l.85.37c17.71,7.69,34.43,17.69,51.51,26.65q9.09,4.75,18.25,9.37c2,1,4.06,2.34,6.27,2.63,2.92.39,5.19-1,7.43-2.63a42.29,42.29,0,0,0,7.18-6.31c7.8-8.91,10.88-20.17,12.65-31.63.83-5.43,1.48-10.88,2.5-16.27.49-2.61,1.08-5.19,1.82-7.74.37-1.25.77-2.49,1.23-3.71.15-.42,1-2.27.17-.54.32-.71.63-1.42,1-2.12s.62-1.15,1-1.69c.23-.36.47-.69.71-1-.1.14-.82.81-.23.34a17.43,17.43,0,0,0,1.42-1.43c.35-.36,1-.56-.2.12.32-.17.61-.41.93-.6s2-.91,1.07-.59,1-.27,1.21-.33c.55-.14,1.11-.23,1.67-.33-1.91.33.41,0,.94,0q1.08,0,2.16.09c.24,0,1.56.23.6.06s.18,0,.3.08c1.42.3,2.83.58,4.24.94a73.81,73.81,0,0,1,7.94,2.5l2,.77c-1.4-.56.2.09.71.33,1.38.62,2.74,1.3,4.08,2a64.76,64.76,0,0,1,7.19,4.46c.32.23.64.48,1,.71-.07,0-1-.8-.33-.26s1.08.88,1.61,1.33c1,.9,2.07,1.84,3,2.82s1.89,2,2.77,3l.74.9c-.05-.06-.72-1.06-.29-.36s.91,1.26,1.33,1.91c.69,1,1.33,2.13,1.91,3.24.32.59.56,1.24.9,1.82.53.92-.43-1.2-.07-.19.13.36.28.72.41,1.09a33.51,33.51,0,0,1,1.18,3.93c.16.68.28,1.36.42,2,0,.16.2,1.17,0,.2-.18-1.13.07.77.07.81a34.25,34.25,0,0,1,.12,4c0,.89-.09,1.77-.16,2.66,0,.19-.18,1.47,0,.28-.07.5-.16,1-.25,1.5a64.35,64.35,0,0,1-2.83,10c-2.32,6.51-5.16,12.82-6.66,19.6-1.22,5.54,3.5,10.73,9.23,9.22,1-.25,1.93-.49,2.91-.68.36-.07,1.2-.39,1.54-.27-.64-.21-1.38.12-.43.08.34,0,.69-.06,1-.07.51,0,1,0,1.55,0,.25,0,.51.05.76.05.84,0-.76,0-.76-.09s1.44.33,1.42.37-1.35-.78-.68-.3a4.59,4.59,0,0,0,.83.48c.78.31-.69-.34-.56-.44a5.26,5.26,0,0,1,.52.53c.62.67-1-.66-.24-.27.15.08.31.58.39.73-.76-1.34,0,.29.24.89.32.93.64,1.86.94,2.79a88.35,88.35,0,0,1,2.9,10.6c.08.41.16.82.23,1.23,0,0,.22,1.3.12.65s.08.7.08.65c0,.41.08.82.11,1.24a39.5,39.5,0,0,1,0,5.33s-.12,1.29,0,.63-.12.66-.11.63c-.16.81-.34,1.62-.56,2.42s-.43,1.42-.69,2.12c-.11.3-.22.6-.34.89.25-.64.33-.71,0-.05-.58,1.13-1.17,2.25-1.85,3.32-.34.54-.7,1.06-1.07,1.58-.06.09-.69.94-.17.26s-.32.37-.42.49a58.34,58.34,0,0,1-6,5.86c-.63.56.13-.09.23-.16l-.79.58c-.53.39-1.06.77-1.61,1.14-1.26.86-2.57,1.67-3.89,2.44-1.14.65-2.29,1.26-3.46,1.85l-1.75.84c-.44.2-2.18,1-.84.4-1.26.52-2.52,1-3.8,1.45-.6.21-1.19.42-1.79.6-.41.12-2.42.83-1.21.4-.49.17-.8-.3-.4.06.11.09.65.16.82.25s.49.49.71.59c.62.28-.16.08-.12-.34,0,0,.32,1.17.14.22-.07-.33-.21-.66-.3-1-.28-1-.52-2-.77-3-3.31-13.34-5.4-26.92-8-40.4-3-15.66-6.89-31-13.58-45.55-1.56-3.38-6.23-4.39-9.37-3.07s-5.79,5.39-4.34,8.85A199.65,199.65,0,0,1,750.67,927a182.1,182.1,0,0,1,4.91,29.23,195.4,195.4,0,0,1,.23,30.41c-.71,10.18-2.3,18.82-4.41,29.22-4.15,20.45-8.74,42.9-.92,63.11,3.31,8.53,8.66,15.54,14.37,22.59,1.16,1.44,2.31,2.87,3.45,4.32.78,1-1-1.4.21.29.25.34.52.69.77,1,.64.87,1.26,1.76,1.87,2.66a57,57,0,0,1,3,5l.59,1.18s.9,1.92.45.93.42,1.08.39,1c.24.64.47,1.29.68,2a46.28,46.28,0,0,1,1.38,5.81c-.28-1.59.05.6.09,1.18q.12,1.56.09,3.12c0,1-.11,2-.19,3.08,0,.39-.29,1.39,0-.19-.08.4-.13.8-.21,1.2a43.2,43.2,0,0,1-1.64,5.78c-.12.33-.59,1.29.07-.13l-.5,1.1c-.44.9-.91,1.79-1.41,2.65-.41.7-.84,1.38-1.3,2-.28.42-.59.83-.87,1.25s-.24.33.24-.31l-.58.72a42.36,42.36,0,0,1-3.64,3.82c-.77.71-1.58,1.39-2.4,2,.23-.18,1.15-.83,0,0-.53.38-1,.75-1.59,1.11a46.94,46.94,0,0,1-5.14,3c-.82.41-1.65.79-2.49,1.16.15-.07-2.05.87-1.11.48l-1.48.59a133.1,133.1,0,0,1-12.91,4.34c-4.44,1.24-8.93,2.26-13.47,3.09q-3.33.62-6.69,1.08c-1.43.2,1.77-.2-.64.08l-1.5.18c-1.26.15-2.51.28-3.77.39a189.38,189.38,0,0,1-28.18.49q-7.2-.39-14.36-1.28l-1.5-.2c.34.05,1.29.19-.24,0-1.11-.16-2.23-.32-3.34-.5-2.33-.37-4.66-.79-7-1.24a160,160,0,0,1-26-7c-.57-.21-1.14-.43-1.7-.66-1.28-.52,1.55.73-.56-.24-.87-.4-1.75-.8-2.62-1.24A67.28,67.28,0,0,1,623,1153c-.17-.11-1.15-.84-.2-.11-.37-.29-.74-.6-1.1-.9a33.46,33.46,0,0,1-2.6-2.45c-.67-.69-1.31-1.41-1.91-2.16.73.91,0,0-.12-.21-.39-.6-.8-1.18-1.18-1.79-.62-1-1.19-2.06-1.72-3.13q-.31-.64-.6-1.29c.5,1.11,0,0-.07-.2a59,59,0,0,1-2.1-6.9c-.22-.95-.42-1.9-.59-2.86-.11-.6-.21-1.2-.31-1.8,0-.34-.25-1.91-.08-.55-.28-2.3-.47-4.61-.59-6.92-.54-10.73.06-21.43-1.43-32.1-1.22-8.74-4.63-20.61-15.4-20.85-6-.14-10.47,4.25-13.32,9.07-5.51,9.3-7.85,20.81-9.68,31.34-1,5.55-1.46,11.15-2.21,16.73a15.66,15.66,0,0,0-.24,1.65c-.19,1.21-.39,2.41-.61,3.62-.39,2.14-.84,4.28-1.38,6.4s-1.16,4.17-1.89,6.21c-.21.57-.42,1.13-.64,1.68-.5,1.28.75-1.54-.23.54-.51,1.09-1,2.17-1.6,3.24-4.08,7.52-10.15,13-17.29,17.3-1.87,1.14-3.8,2.2-5.76,3.19-.88.44-1.76.87-2.65,1.28l-1.67.76-1,.44c.55-.23.58-.24.09,0a133,133,0,0,1-12.73,4.42c-20.19,6-39.93,7.09-61,8.33a141.84,141.84,0,0,1-14.58.28c-1,0-2-.1-3-.18l-1.52-.14c.17,0-2.29-.29-1.25-.14s-1.4-.24-1.23-.21l-1.48-.28c-1.22-.25-2.43-.55-3.62-.89s-2.14-.66-3.18-1c-.28-.11-1.73-.75-.62-.24l-1.36-.65c-1-.48-1.9-1-2.82-1.58-.46-.28-.91-.58-1.35-.88s-1.8-1.36-.55-.36a38.37,38.37,0,0,1-4-3.68c-.65-.7-1.25-1.44-1.88-2.17.91,1.06.18.25,0,0-.37-.53-.75-1-1.1-1.58a45.57,45.57,0,0,1-2.9-5c-.19-.38-.38-.77-.56-1.17,0,0-.82-1.92-.41-.89s-.36-1-.34-.93c-.23-.61-.45-1.23-.66-1.85a56.09,56.09,0,0,1-1.58-5.71c-.19-.86-.36-1.72-.52-2.58l-.21-1.31c-.31-1.79.07,1-.08-.62a64.33,64.33,0,0,1,2.79-26.9,56.57,56.57,0,0,1,5.47-12.53c2.42-4.26,5.23-8.3,7.21-12.81a47.29,47.29,0,0,0,4-21.41c-.8-15.73-4.78-31.1-3.89-47,.05-.89.12-1.78.2-2.66,0-.44.09-.88.13-1.32.19-2.11-.18,1,0-.29.35-2,.7-4,1.24-6,.28-1,.59-2,.93-3,.14-.39.3-.78.44-1.17.3-.84-.25-.27-.25.56,0-1,1.2-2.37,1.68-3.18.83-1.39-1,1.07-.29.33.29-.29.54-.63.83-.93.62-.65,1.29-1.24,2-1.83a64.9,64.9,0,0,0,5.24-5c12.1-13.23,20.48-30.63,25.66-47.66q1-3.3,1.81-6.64c.15-.61.3-1.22.43-1.83.24-1.09.82-1.6-.51.87l-2.69,2.69h0l-10.26-2.69h0l-1-3.78c0,.57.51-2.57.16-1.23-.15.56-.25,1.15-.39,1.72-.46,1.91-1,3.81-1.59,5.7q-1.35,4.33-3,8.58c-.3.77-.6,1.54-.91,2.31-.14.34-.28.69-.42,1,.13-.31.48-1.1-.14.31-.8,1.84-1.64,3.68-2.51,5.49a164.21,164.21,0,0,1-10.83,19.34c-.41.61-.83,1.22-1.26,1.81-.23.34-.48.66-.72,1,.05-.07.81-.94.25-.33-1,1.06-1.84,2.19-2.87,3.2-.46.45-.95.87-1.43,1.3-1.38,1.24.68-.38-.41.33s-2.36,1.34-3.52,2c-.86.52,1.26-.34.26-.11a8.39,8.39,0,0,0-.79.29,23.69,23.69,0,0,1-2.62.74c-.13,0-1.81.36-1,.23s-.63.07-.61.06a29.36,29.36,0,0,1-3.11.08,27.34,27.34,0,0,1-3-.23c1.21.17-.51-.12-.89-.19-1.86-.36-3.72-.82-5.55-1.35a50.35,50.35,0,0,1-5.05-1.77c1,.39-.75-.35-1-.47-1-.49-2.06-1-3.07-1.56q-2.36-1.28-4.61-2.75c-.75-.49-1.5-1-2.23-1.51l-.94-.67c-.26-.19-1.4-1-.63-.45a71.31,71.31,0,0,1-8-7.15c-.59-.62-1.16-1.24-1.72-1.88l-.94-1.11s-.78-.94-.32-.37-.28-.37-.29-.39l-.84-1.18q-.81-1.18-1.53-2.43c-.43-.72-.82-1.45-1.19-2.2-.08-.16-.72-1.5-.37-.73s-.15-.37-.17-.42c-.57-1.54-.87-3.12-1.36-4.67-.27-.88.1,1.75.11.81,0-.2-.05-.41-.05-.61,0-.5,0-1,0-1.5s0-1,.07-1.55a4.56,4.56,0,0,0,.09-.92c.08.27-.28,1.68-.08.6.26-1.36.54-2.7.93-4,.19-.63.4-1.26.63-1.88.08-.23.17-.46.26-.69.56-1.52-.56,1-.08.21.66-1.09,1.13-2.3,1.83-3.38.16-.26.34-.51.51-.77.74-1.11-.26.07-.21.25-.05-.18,1-1.17,1.17-1.29l.47-.44c1.07-1.09-.41.22-.41.26,0-.19,1.2-.73,1.35-.83.75-.51.16.54-.74.29a6.1,6.1,0,0,0,.72-.23,3.66,3.66,0,0,1,.74-.16l-1.25.18.38,0c.19-.15.59.14.77,0-.24.15-1.79-.47-.81-.08a6.23,6.23,0,0,0,.8.23c1.2.27-1-.66-.37-.13.24.2,1.93,1.28,1.11.64s0,0,.09.11c.43.42.86.82,1.28,1.25,2.73,2.82,7.9,2.95,10.61,0a7.67,7.67,0,0,0,0-10.61c-.62-.67-1.23-1.36-1.81-2.07.94,1.16-.38-.58-.45-.67a38.23,38.23,0,0,1-2.44-4.08c-.32-.6-.6-1.22-.9-1.83-.35-.8-.37-.82,0-.08-.17-.42-.33-.85-.49-1.27a46.7,46.7,0,0,1-1.41-4.59c-.37-1.45-.67-2.91-.92-4.39-.05-.34-.11-.69-.16-1,.12.85.12.82,0-.08-.06-.69-.14-1.38-.19-2.08a65.29,65.29,0,0,1,0-9.79c.05-.7.11-1.39.19-2.09.05-.46.1-.92.16-1.38-.11.85-.11.82,0-.07.31-1.77.62-3.54,1-5.3.83-3.75,1.87-7.46,3-11.12,1.07-3.4,2.35-6.74,3.3-10.17s1.77-6.85,2.86-10.21a7.57,7.57,0,0,0-5.24-9.23A7.68,7.68,0,0,0,375.46,866.81Z"/><path class="cls-3" d="M895.75,642.06a137.77,137.77,0,0,1-11.33,59.87c-7,15.31-21.17,38.29-63.62,65.29-15.56,9.9-81.59,50-191.51,55.92-52.58,2.83-85.72,4.6-125.63-12.27-14.32-6-100.71-42.68-111.94-124.72-11-80.59,56.28-162.59,111.94-165.43,21.45-1.1,51.08,9,78.2,18.33,29.63,10.15,41.5,18.05,60.94,14.57,15.79-2.84,21.45-10.47,46.38-27.51,31.35-21.43,48.29-33,64.18-36.14C808.08,479.21,892.08,560.34,895.75,642.06Z"/></svg>