<svg id="Layer_2" data-name="Layer 2" xmlns="http://www.w3.org/2000/svg" viewBox="0 0 1113.98 1280"><defs><style>.cls-1,.cls-2{fill:#41aa5c;stroke:#297c3b;stroke-miterlimit:10;}.cls-1{stroke-width:15.81px;}.cls-2{stroke-width:8px;}</style></defs><path class="cls-1" d="M970.79,408.24q17-175.35,34-350.7L723.24,235.92q-1.8,20.57-2.43,42.47c-.14,5.25-.22,10.44-.25,15.61-50.64-14.84-94.72-14.54-115-14.39-7.6.05-88.81,1.84-174,45.65a437.35,437.35,0,0,0-6.77-45.65L114.07,160.69l57,310.65a324,324,0,0,0,98.14,28.72c-10.47,28.85-37.12,116.35,8.65,198.2,27.62,49.4,69.16,74.46,84.94,83.73,9,5.28,18.27,9.62,18.27,9.62,6.19,2.53,11.13,4.68,14.55,6.2,4.08,1.83,10.91,4.94,10.91,4.94s-7.31,9.08-8.9,11c-6.14,7.26-14,8.79-27.55,16C346.17,842.5,327.94,849.2,329,856.58c.1.76.09,1.71.63,1.75,14.7,1,35.64,2.17,60.85,2.54,23.42.34,56.63,3.23,56.63,3.23s18.38,14.54,28,33.44c5.19,10.15,16.14,37.75,16.72,58.25a3.2,3.2,0,0,0,.89,2.57c5.75,4.31,32-33.15,79-64.93,10.94-7.41,33.39-21.54,36.94-23.77a1,1,0,0,1,1,0c4,2,31,15.18,43.18,21.19,16.44,8.09,39.68,19.67,68.63,34.5a1,1,0,0,0,1.48-.82c2-22.69,4.5-40.26,6.52-52.56,1.09-6.65,4.22-25,4.93-29.2a1,1,0,0,1,1-.84l35.73,1c17.22.46,28.73.49,35.2.59,13.55.2,32.51.7,57,2,.79,0,.31-1.36.28-2-.09-2.86-41.73-15-62.38-34a67,67,0,0,1-14.42-19.28c-6.53,3.35-15.94,7.88-27.57,12.48-15.93,6.29-43.18,15.53-130.46,22.58-69.45,5.61-96.62,3.34-125.66-8.63-1.25-.52-3.71-1.57-6.59-2.87-24.79-11.24-95.28-48.3-105.35-121.85-11-80.59,56.29-162.59,111.94-165.44,21.45-1.09,51.09,9.06,78.2,18.34,29.63,10.15,41.51,18,61,14.56,15.79-2.83,21.45-10.46,46.38-27.5,31.34-21.43,48.28-33,64.18-36.14C807.62,485,891.62,566.11,895.28,647.83A133.27,133.27,0,0,1,884,707.7c-27.9,62.08-97.25,82.21-97.08,82.51s84.44-22.48,126.47-100.45c12.94-24,17.76-49,21-64.31,5.06-23.73,12.11-56.75,4.86-97.89-7-39.86-24.42-70-38.28-89.1q8.1-2.76,16.43-5.95A488,488,0,0,0,970.79,408.24Z"/><path class="cls-2" d="M407.46,1055.47a101.87,101.87,0,0,1-91.86-59.64c22.34-13.62,22.34-20.15,21.75-22.38-1.3-4.87-9.62-5.53-42.68-10.25-32.35-4.62-38.43-6.82-43.68-2-5.51,5-3,11.54-2.5,40.31.55,32-2.21,44.07,3.31,46.45,2.83,1.23,8.51.19,21-14,9.12,12.84,28,35.31,59.39,48.27,13.65,5.64,31.07,12.73,52.32,8.36a70.74,70.74,0,0,0,25.52-10.94Q408.76,1067.57,407.46,1055.47Z"/><circle class="cls-1" cx="104.33" cy="149.72" r="33.21"/><circle class="cls-1" cx="1009.62" cy="54.51" r="33.21"/></svg>