<svg id="Layer_1" data-name="Layer 1" xmlns="http://www.w3.org/2000/svg" viewBox="0 0 24 24"><defs><style>.cls-1{fill:#1a1a1a;}</style></defs><path class="cls-1" d="M20.59,15.63a.86.86,0,0,1,0,.45.78.78,0,0,1-.22.41l-1.57,1.57a.77.77,0,0,1-.75.19.78.78,0,0,1-.36-1.3l.28-.28a7.52,7.52,0,0,1-4.64-2.13L12,13.13l-1.37,1.41a7.6,7.6,0,0,1-2.54,1.64,7.84,7.84,0,0,1-3,.54h-1a.79.79,0,0,1,0-1.58h1a6.18,6.18,0,0,0,4.4-1.7L10.9,12,9.5,10.56a6.18,6.18,0,0,0-4.4-1.7h-1a.79.79,0,0,1,0-1.58h1a7.84,7.84,0,0,1,3,.54,7.6,7.6,0,0,1,2.54,1.64L12,10.87l1.37-1.41A7.52,7.52,0,0,1,18,7.33l-.28-.28a.78.78,0,0,1,.36-1.3.77.77,0,0,1,.75.19l1.57,1.57a.8.8,0,0,1,0,1.12L18.84,10.2a.8.8,0,0,1-.75.2.83.83,0,0,1-.56-.56.8.8,0,0,1,.2-.75l.15-.15h0a5.94,5.94,0,0,0-3.38,1.62L13.1,12l1.4,1.44a5.94,5.94,0,0,0,3.38,1.62l-.15-.15a.8.8,0,0,1-.2-.75.83.83,0,0,1,.56-.56.8.8,0,0,1,.75.2l1.57,1.57h0a.62.62,0,0,1,.17.26Z"/></svg>