<svg id="Layer_6" data-name="Layer 6" xmlns="http://www.w3.org/2000/svg" viewBox="0 0 1113.98 1280"><defs><style>.cls-1{fill:#ead788;}</style></defs><polygon class="cls-1" points="380.94 200.98 338.27 187.35 302.86 214.78 302.63 169.99 265.6 144.78 308.13 130.72 320.67 87.72 347.18 123.82 391.95 122.45 365.8 158.82 380.94 200.98"/><polygon class="cls-1" points="1012.45 799.44 986.27 763.09 941.49 764.05 967.97 727.92 953.22 685.62 995.76 699.64 1031.43 672.54 1031.24 717.34 1068.04 742.88 1025.38 756.55 1012.45 799.44"/><polygon class="cls-1" points="166.34 768.1 121.84 762.97 92.39 796.72 83.52 752.81 42.32 735.22 81.34 713.22 85.34 668.6 118.32 698.91 161.99 688.93 143.35 729.66 166.34 768.1"/><polygon class="cls-1" points="262.96 1229.81 236.97 1193.33 192.18 1194.06 218.84 1158.07 204.31 1115.7 246.78 1129.93 282.58 1103.01 282.17 1147.81 318.83 1173.54 276.11 1186.99 262.96 1229.81"/><polygon class="cls-1" points="670.6 149.59 644.61 113.11 599.82 113.84 626.48 77.85 611.94 35.48 654.42 49.71 690.22 22.79 689.81 67.59 726.47 93.32 683.75 106.77 670.6 149.59"/><polygon class="cls-1" points="1005.2 1135.57 964.05 1117.86 926.14 1141.71 930.27 1097.11 895.87 1068.42 939.57 1058.56 956.22 1016.98 979.09 1055.49 1023.79 1058.48 994.23 1092.14 1005.2 1135.57"/><polygon class="cls-1" points="1081.59 282.26 1057.19 280.7 1042.07 299.92 1036.01 276.23 1013.06 267.79 1033.72 254.71 1034.66 230.27 1053.48 245.88 1077.01 239.22 1067.99 261.94 1081.59 282.26"/><polygon class="cls-1" points="559.02 241.9 536.56 232.23 515.86 245.25 518.11 220.9 499.33 205.24 523.19 199.86 532.28 177.16 544.77 198.18 569.17 199.81 553.03 218.19 559.02 241.9"/><polygon class="cls-1" points="71.9 368.34 63.28 345.45 39.54 339.58 58.64 324.31 56.9 299.92 77.32 313.37 99.98 304.17 93.5 327.75 109.25 346.45 84.82 347.58 71.9 368.34"/><polygon class="cls-1" points="129.1 1089.97 106.64 1080.3 85.94 1093.32 88.2 1068.97 69.42 1053.31 93.27 1047.93 102.36 1025.23 114.85 1046.26 139.25 1047.89 123.11 1066.26 129.1 1089.97"/><polygon class="cls-1" points="152.62 574.52 140.5 569.3 129.32 576.33 130.54 563.18 120.4 554.72 133.28 551.82 138.19 539.56 144.93 550.91 158.1 551.79 149.39 561.72 152.62 574.52"/><polygon class="cls-1" points="695.37 1246.38 683.25 1241.16 672.07 1248.19 673.29 1235.04 663.14 1226.59 676.03 1223.68 680.93 1211.43 687.68 1222.78 700.85 1223.66 692.14 1233.58 695.37 1246.38"/><polygon class="cls-1" points="1041.85 509.85 1029.72 504.63 1018.54 511.66 1019.76 498.51 1009.62 490.05 1022.5 487.15 1027.41 474.89 1034.15 486.24 1047.33 487.13 1038.61 497.05 1041.85 509.85"/></svg>