<svg id="Layer_6" data-name="Layer 6" xmlns="http://www.w3.org/2000/svg" viewBox="0 0 1113.98 1280"><defs><style>.cls-1{fill:#fff;}.cls-2{fill-rule:evenodd;}</style></defs><rect class="cls-1" x="419.6" y="618.35" width="74.28" height="25.49" transform="translate(-61.41 49.37) rotate(-5.8)"/><rect class="cls-1" x="486.72" y="628.04" width="63.08" height="48.5" transform="translate(-63.24 55.69) rotate(-5.8)"/><rect class="cls-1" x="470.82" y="628.7" width="21.95" height="58.16" transform="translate(-63.98 52.03) rotate(-5.8)"/><rect class="cls-1" x="447.41" y="630.67" width="29.07" height="39.03" transform="translate(-63.31 49.99) rotate(-5.8)"/><rect class="cls-1" x="702.68" y="585.82" width="94.39" height="47.72" transform="translate(-57.75 78.87) rotate(-5.8)"/><rect class="cls-1" x="744.74" y="621.15" width="67.4" height="38.47" transform="translate(-60.71 81.91) rotate(-5.8)"/><path class="cls-2" d="M382.81,610l4.17,41,19.29-2,2.21,21.77L429,668.78l2,19.28,21.65-2.19,2,19.28L604,690l-2-19.29,18.13-1.84-1.95-19.29,19.34-2-4.26-41.93,44-4.46,4.25,41.93L702.64,641l2,19.29L727.46,658l2,19.29,125.74-12.77-2-19.29L874.83,643l-2-19.29,19.32-2L890,600l20.16-2.05-4.17-41ZM740,595.66l19.28-2,2,19.28-19.28,2Zm-38.61,3.92,19.29-2,2,19.28-19.29,2ZM464.12,623.67l19.29-2,2,19.29-19.29,2Zm-38.6,3.92,19.28-2,2,19.29-19.28,2ZM761.31,613l19.28-2,2,19.28,19.29-2,2,19.29-19.29,2-2-19.29-19.28,2Zm-38.61,3.92L742,615l2,19.28,19.29-2,2,19.29-19.29,2-2-19.29-19.28,2ZM485.41,641l19.28-2,2,19.29,19.29-2,2,19.29-19.29,1.95-2-19.28-19.28,1.95ZM446.8,645l19.29-2,2,19.29,19.28-2,2,19.29L470,681.56l-2-19.28-19.29,2Z"/></svg>